<svg xmlns="http://www.w3.org/2000/svg" xmlns:xlink="http://www.w3.org/1999/xlink" width="1024" height="768" viewBox="0 0 1024 768">
  <defs>
    <filter id="Path_887" x="33.291" y="176.784" width="216.21" height="216.21" filterUnits="userSpaceOnUse">
      <feOffset input="SourceAlpha"/>
      <feGaussianBlur stdDeviation="13" result="blur"/>
      <feFlood flood-color="#a5a5a5"/>
      <feComposite operator="in" in2="blur"/>
      <feComposite in="SourceGraphic"/>
    </filter>
    <filter id="Path_820" x="791.292" y="205.009" width="138.417" height="138.42" filterUnits="userSpaceOnUse">
      <feOffset input="SourceAlpha"/>
      <feGaussianBlur stdDeviation="7" result="blur-2"/>
      <feFlood flood-color="#9a9a9a"/>
      <feComposite operator="in" in2="blur-2"/>
      <feComposite in="SourceGraphic"/>
    </filter>
    <clipPath id="clip-BANKING_-_Automated">
      <rect width="1024" height="768"/>
    </clipPath>
  </defs>
  <g id="BANKING_-_Automated" data-name="BANKING - Automated" clip-path="url(#clip-BANKING_-_Automated)">
    <rect width="1024" height="768" fill="#fff"/>
    <g id="Group_356" data-name="Group 356" transform="translate(-149 -107)">
      <g id="Group_355" data-name="Group 355" transform="translate(40 -65.843)">
        <rect id="Rectangle_566" data-name="Rectangle 566" width="94" height="8" transform="translate(309 454.843)" fill="#6dc742"/>
        <rect id="Rectangle_567" data-name="Rectangle 567" width="94" height="8" transform="translate(305 428.843)" fill="#6dc742"/>
        <rect id="Rectangle_568" data-name="Rectangle 568" width="94" height="8" transform="translate(305 479.843)" fill="#6dc742"/>
      </g>
      <g id="Group_354" data-name="Group 354" transform="translate(45 -80)">
        <rect id="Rectangle_573" data-name="Rectangle 573" width="94" height="8" transform="translate(394 431)" fill="#6dc742"/>
        <g id="Group_353" data-name="Group 353" transform="translate(394 404)">
          <rect id="Rectangle_576" data-name="Rectangle 576" width="94" height="8" transform="translate(0 102)" fill="#6dc742"/>
          <rect id="Rectangle_574" data-name="Rectangle 574" width="94" height="8" fill="#6dc742"/>
          <rect id="Rectangle_577" data-name="Rectangle 577" width="94" height="8" transform="translate(0 76)" fill="#6dc742"/>
          <rect id="Rectangle_572" data-name="Rectangle 572" width="94" height="8" transform="translate(0 53)" fill="#6dc742"/>
          <rect id="Rectangle_575" data-name="Rectangle 575" width="94" height="8" transform="translate(0 129)" fill="#6dc742"/>
        </g>
      </g>
      <text id="ria_sen" data-name="ria sen" transform="translate(291 502)" fill="#16325c" font-size="14" font-family="HelveticaNeue, Helvetica Neue" letter-spacing="0.05em"><tspan x="-29.057" y="0">RIA SEN</tspan></text>
      <text id="_inquiry_from_Walk-IN_" data-name="(inquiry from Walk-IN)" transform="translate(291 515)" fill="#16325c" font-size="11" font-family="HelveticaNeue, Helvetica Neue" letter-spacing="0.05em"><tspan x="-59.565" y="0">(Inquiry From Walk-In)</tspan></text>
      <g id="Group_346" data-name="Group 346" transform="translate(-15 30)">
        <rect id="Rectangle_485" data-name="Rectangle 485" width="274" height="29" rx="14.5" transform="translate(458 225) rotate(90)" fill="#16325c"/>
        <text id="Automated_Response_Trigger" data-name="Automated Response Trigger" transform="translate(433 481) rotate(-90)" fill="#eff" font-size="15" font-family="HelveticaNeue-Medium, Helvetica Neue" font-weight="500" letter-spacing="0.05em"><tspan x="8.607" y="15">Automated Response Trigger</tspan></text>
      </g>
      <g id="Group_344" data-name="Group 344" transform="translate(81 70.97)">
        <g id="Ellipse_289" data-name="Ellipse 289" transform="translate(136 247.03)" fill="none" stroke="#0093dd" stroke-width="1" stroke-dasharray="7">
          <circle cx="74" cy="74" r="74" stroke="none"/>
          <circle cx="74" cy="74" r="73.5" fill="none"/>
        </g>
        <g id="Group_338" data-name="Group 338" transform="translate(140.291 251.813)">
          <g transform="matrix(1, 0, 0, 1, -72.29, -215.78)" filter="url(#Path_887)">
            <path id="Path_887-2" data-name="Path 887" d="M400.21,181.105a69.054,69.054,0,0,1-32.218,58.447q-2.711,1.717-5.59,3.179c-.433.223-.869.438-1.309.648-.362.176-.728.348-1.094.517a68.461,68.461,0,0,1-11.813,4.185c-.264.067-.53.133-.8.2-.2.049-.4.1-.6.141a.515.515,0,0,1-.076.018c-.411.1-.822.188-1.237.272-.233.049-.466.1-.7.145-.141.031-.284.057-.425.084l-.532.1c-.1.02-.2.037-.3.053-.225.041-.45.082-.673.121-.38.065-.765.129-1.147.186-.278.043-.554.084-.832.123-.327.047-.654.09-.983.131-.09.014-.18.025-.27.035l-.35.043c-.356.043-.716.082-1.073.119q-.35.037-.7.068c-.3.029-.6.053-.9.078-.368.029-.734.055-1.1.078-.237.014-.474.029-.714.041-.609.033-1.219.055-1.832.072-.3.008-.611.014-.918.018h-.006c-.3,0-.611.006-.918.006a69.105,69.105,0,1,1,69.105-69.105Z" transform="translate(-189.71 103.78)" fill="#0093dd"/>
          </g>
          <path id="Path_890" data-name="Path 890" d="M696.326,289.384a27.326,27.326,0,0,1-1.575,14.024,24.9,24.9,0,0,1-4.724-26.652A27.325,27.325,0,0,1,696.326,289.384Z" transform="translate(-600.992 -243.071)" opacity="0.2"/>
          <path id="Path_893" data-name="Path 893" d="M421.445,223.17c9.993-16.885,29.762-17.671,29.762-17.671s19.264-2.464,31.623,23.252c11.519,23.969,27.416,47.111,2.559,52.722L480.9,267.5l-2.78,15.015a97.251,97.251,0,0,1-10.635.182c-26.619-.859-51.97.251-51.154-9.3C417.415,260.7,411.831,239.416,421.445,223.17Z" transform="translate(-384.265 -186.331)" fill="#2f2e41"/>
          <circle id="Ellipse_288" data-name="Ellipse 288" cx="25.275" cy="25.275" r="25.275" transform="translate(43.614 32.413)" fill="#d0cde1"/>
          <path id="Path_894" data-name="Path 894" d="M498.2,455.554s-10.3,29.956,1.872,38.381-19.658,14.042-28.083,8.425-14.978-14.978-14.978-14.978,21.531-21.531,16.85-33.7Z" transform="translate(-417.138 -383.824)" fill="#d0cde1"/>
          <path id="Path_895" data-name="Path 895" d="M395.759,601.561l-1.781,15.234a68.458,68.458,0,0,1-11.813,4.185c-.264.068-.53.133-.8.2-.2.049-.4.1-.6.141a.518.518,0,0,1-.076.018c-.411.1-.822.188-1.237.272-.233.049-.466.1-.7.145-.141.031-.284.057-.425.084l-.532.1c-.1.02-.2.037-.3.053-.225.041-.45.082-.673.121-.38.065-.765.129-1.147.186-.278.043-.554.084-.832.123-.327.047-.654.09-.983.131-.09.014-.18.025-.27.035l-.35.043c-.356.043-.716.082-1.073.119q-.35.037-.7.067c-.3.029-.6.053-.9.078-.368.029-.734.055-1.1.078-.237.014-.474.029-.714.041-.609.033-1.219.055-1.832.071-.3.008-.611.014-.918.018H366c-.3,0-.611.006-.918.006a69.166,69.166,0,0,1-60.373-35.454,91.272,91.272,0,0,1,9.607-5.751,12.187,12.187,0,0,1,4.128-1.028,47.186,47.186,0,0,1,12.647.832c3.791.711,7.058,1.724,8.5,2.678,3.746,2.48,18.724,10.623,18.724,10.623s13.1,1.873,18.391-2.028c0,0,0,0,0,0,1.247-.924,2.973-.93,4.876-.4q.6.169,1.231.4a24.863,24.863,0,0,1,3.369,1.6l.072.041c.382.215.763.44,1.139.671A63.034,63.034,0,0,1,395.759,601.561Z" transform="translate(-295.978 -484.898)" fill="#2f2e41"/>
          <path id="Path_896" data-name="Path 896" d="M373.6,606.51c-.605-11.241-1.292-20.449-1.709-25.636a47.186,47.186,0,0,1,12.647.832c3.384,6.78,11.01,22.429,18.029,39.549A68.9,68.9,0,0,1,373.6,606.51Z" transform="translate(-349.423 -484.898)" fill="#2f2e41"/>
          <path id="Path_897" data-name="Path 897" d="M701.96,648.27l.249.129C702.185,648.665,702.126,648.828,701.96,648.27Z" transform="translate(-612.009 -538.628)" fill="#2f2e41"/>
          <path id="Path_898" data-name="Path 898" d="M703.26,646.846c0,.029.006.059.008.088l-.088-.045c0-.027,0-.055.008-.084C703.209,646.448,703.184,646.024,703.26,646.846Z" transform="translate(-612.979 -537.118)" fill="#2f2e41"/>
          <path id="Path_899" data-name="Path 899" d="M703.355,666.856q-2.711,1.718-5.59,3.179c-.433.223-.869.438-1.308.648-.362.176-.728.348-1.094.517a68.466,68.466,0,0,1-11.813,4.185c2.946-9.513,4.813-18.906,4.1-26.266l1.131.583,5.449,2.807a16.748,16.748,0,0,1,4.24,3.108,15.521,15.521,0,0,1,1.061,1.174,16.818,16.818,0,0,1,3.815,9.887C703.349,666.738,703.353,666.8,703.355,666.856Z" transform="translate(-597.363 -539.304)" fill="#2f2e41"/>
          <path id="Path_900" data-name="Path 900" d="M475.579,244.409l19.532-10.231,12.254,1.9a21.907,21.907,0,0,1,18.007,16.81l2.291,10.12-13.891-.534-3.881-9.055v8.906l-6.41-.247-3.72-14.416-2.325,15.346-22.787-.465Z" transform="translate(-431.172 -209.198)" fill="#2f2e41"/>
        </g>
      </g>
      <g id="Group_352" data-name="Group 352" transform="translate(-93 -23)">
        <circle id="Ellipse_293" data-name="Ellipse 293" cx="147" cy="147" r="147" transform="translate(579 261)" fill="#0093dd"/>
        <g id="Group_349" data-name="Group 349" transform="translate(-245 191)">
          <g id="Group_339" data-name="Group 339" transform="translate(432 -192)">
            <circle id="Ellipse_292" data-name="Ellipse 292" cx="50" cy="50" r="50" transform="translate(512 283)" fill="#c2e8fc" opacity="0.132"/>
            <circle id="Ellipse_290" data-name="Ellipse 290" cx="41" cy="41" r="41" transform="translate(520 291)" fill="#c2e8fc"/>
            <circle id="Ellipse_291" data-name="Ellipse 291" cx="45.5" cy="45.5" r="45.5" transform="translate(516 287)" fill="#c2e8fc" opacity="0.474"/>
          </g>
          <circle id="Ellipse_242" data-name="Ellipse 242" cx="38" cy="38" r="38" transform="translate(955 102)" fill="#ffd246"/>
          <g id="noun_call_2905008" transform="translate(965.032 117.44)">
            <path id="Path_841" data-name="Path 841" d="M20.615,15.856a2.206,2.206,0,0,0,0-3.117L13.523,5.646a2.207,2.207,0,0,0-3.117,0L7.312,8.739c-5.132,5.132-1.573,16.731,8.1,26.406C22.1,41.828,29.7,45.592,35.449,45.592a8.719,8.719,0,0,0,6.373-2.344l3.093-3.094a2.207,2.207,0,0,0,0-3.117l-7.093-7.093a2.207,2.207,0,0,0-3.117,0l-2.08,2.08c-1.616,1.613-6.175.512-10.388-3.7s-5.315-8.773-3.7-10.388ZM11.553,6.793a.583.583,0,0,1,.823,0l7.093,7.093a.583.583,0,0,1,0,.823l-1.507,1.507L10.046,8.3Zm24.3,24.3a.583.583,0,0,1,.823,0l7.092,7.093a.583.583,0,0,1,0,.823l-1.506,1.507L34.345,32.6Zm-14.763-1.62c4.237,4.237,9.3,5.941,12.038,4.2l7.986,7.986-.439.44c-4.414,4.414-15.23.778-24.112-8.1S4.046,14.3,8.459,9.886l.44-.439,7.986,7.986C15.148,20.171,16.851,25.234,21.089,29.472Z" transform="translate(0 0)" fill="#006cff"/>
            <path id="Path_842" data-name="Path 842" d="M31,5a.811.811,0,1,0,0,1.623,17.717,17.717,0,0,1,17.7,17.7.811.811,0,1,0,1.623,0A19.341,19.341,0,0,0,31,5Z" transform="translate(-4.758 0)" fill="#006cff"/>
            <path id="Path_843" data-name="Path 843" d="M31,14.835A11.047,11.047,0,0,1,42.033,25.869a.811.811,0,1,0,1.623,0A12.671,12.671,0,0,0,31,13.212a.811.811,0,1,0,0,1.623Z" transform="translate(-4.758 -1.55)" fill="#006cff"/>
            <path id="Path_844" data-name="Path 844" d="M31,23.047a4.376,4.376,0,0,1,4.371,4.371.811.811,0,1,0,1.623,0A6,6,0,0,0,31,21.425a.811.811,0,1,0,0,1.623Z" transform="translate(-4.758 -3.099)" fill="#006cff"/>
          </g>
        </g>
        <g id="Group_350" data-name="Group 350" transform="translate(-341 142)">
          <g id="Group_342" data-name="Group 342" transform="translate(431 -51.376)">
            <circle id="Ellipse_292-2" data-name="Ellipse 292" cx="51" cy="51" r="51" transform="translate(512 283.376)" fill="#c2e8fc" opacity="0.132"/>
            <circle id="Ellipse_290-2" data-name="Ellipse 290" cx="42" cy="42" r="42" transform="translate(520 291.376)" fill="#c2e8fc"/>
            <circle id="Ellipse_291-2" data-name="Ellipse 291" cx="46.5" cy="46.5" r="46.5" transform="translate(516 287.376)" fill="#c2e8fc" opacity="0.474"/>
          </g>
          <ellipse id="Ellipse_243" data-name="Ellipse 243" cx="38.5" cy="38" rx="38.5" ry="38" transform="translate(955 244)" fill="#ffd246"/>
          <g id="Outline_Icon" data-name="Outline Icon" transform="translate(967 254.88)">
            <path id="Path_845" data-name="Path 845" d="M44.467,18H28.093A4.1,4.1,0,0,0,24,22.093v9.824a4.1,4.1,0,0,0,4.093,4.093h2.718l2.318,3.709a.819.819,0,0,0,1.392,0l2.315-3.709h7.63a4.1,4.1,0,0,0,4.093-4.093V22.093A4.1,4.1,0,0,0,44.467,18Zm2.456,13.917a2.456,2.456,0,0,1-2.456,2.456H36.382a.819.819,0,0,0-.694.385l-1.864,2.982L31.96,34.758a.819.819,0,0,0-.694-.385H28.093a2.456,2.456,0,0,1-2.456-2.456V22.093a2.456,2.456,0,0,1,2.456-2.456H44.467a2.456,2.456,0,0,1,2.456,2.456Z" transform="translate(-2.539 -2.901)" fill="#006cff"/>
            <path id="Path_846" data-name="Path 846" d="M43.917,25h-13.1a.819.819,0,0,0,0,1.637h13.1a.819.819,0,0,0,0-1.637Z" transform="translate(-3.627 -4.171)" fill="#006cff"/>
            <path id="Path_847" data-name="Path 847" d="M43.917,30h-13.1a.819.819,0,0,0,0,1.637h13.1a.819.819,0,0,0,0-1.637Z" transform="translate(-3.627 -5.077)" fill="#006cff"/>
            <path id="Path_848" data-name="Path 848" d="M37.016,35.565a.819.819,0,0,0-.819.819v4.093H11.637V11.005H36.2v1.637a.819.819,0,1,0,1.637,0V6.912A4.917,4.917,0,0,0,32.923,2H14.912A4.917,4.917,0,0,0,10,6.912v39.3a4.917,4.917,0,0,0,4.912,4.912H32.923a4.917,4.917,0,0,0,4.912-4.912V36.384A.819.819,0,0,0,37.016,35.565ZM14.912,3.637H32.923A3.275,3.275,0,0,1,36.2,6.912V9.368H11.637V6.912A3.275,3.275,0,0,1,14.912,3.637ZM32.923,49.483H14.912a3.275,3.275,0,0,1-3.275-3.275V42.115H36.2v4.093A3.275,3.275,0,0,1,32.923,49.483Z" transform="translate(0)" fill="#006cff"/>
            <path id="Path_849" data-name="Path 849" d="M23.319,8.137h5.731a.819.819,0,1,0,0-1.637H23.319a.819.819,0,1,0,0,1.637Z" transform="translate(-2.267 -0.816)" fill="#006cff"/>
            <path id="Path_850" data-name="Path 850" d="M26.365,52a2.865,2.865,0,1,0,2.865,2.865A2.865,2.865,0,0,0,26.365,52Zm0,4.093a1.228,1.228,0,1,1,1.228-1.228A1.228,1.228,0,0,1,26.365,56.093Z" transform="translate(-2.448 -9.067)" fill="#006cff"/>
          </g>
        </g>
        <g id="Group_351" data-name="Group 351" transform="translate(-209 40)">
          <g id="Group_341" data-name="Group 341" transform="translate(433 91.624)">
            <circle id="Ellipse_292-3" data-name="Ellipse 292" cx="51" cy="51" r="51" transform="translate(512 283.376)" fill="#c2e8fc" opacity="0.132"/>
            <circle id="Ellipse_290-3" data-name="Ellipse 290" cx="42" cy="42" r="42" transform="translate(520 291.376)" fill="#c2e8fc"/>
            <circle id="Ellipse_291-3" data-name="Ellipse 291" cx="46.5" cy="46.5" r="46.5" transform="translate(516 287.376)" fill="#c2e8fc" opacity="0.474"/>
          </g>
          <circle id="Ellipse_244" data-name="Ellipse 244" cx="38" cy="38" r="38" transform="translate(957 387)" fill="#ffd246"/>
          <g id="noun_SMS_2582651" transform="translate(940.71 276.14)">
            <g id="Group_237" data-name="Group 237" transform="translate(22.4 135.3)">
              <path id="Path_836" data-name="Path 836" d="M34.845,160.043H29.007a.477.477,0,1,0,0,.953h5.839v5.839a1.211,1.211,0,0,0,.119.543l15.993-11.664L34.938,141.6a1.452,1.452,0,0,0-.093.477v9.188H22.877a.477.477,0,0,0,0,.953H34.845v3.429H26.054a.475.475,0,0,0-.477.477.486.486,0,0,0,.477.49h8.791Z" transform="translate(-22.4 -140.766)" fill="#006cff"/>
              <path id="Path_837" data-name="Path 837" d="M319.392,166.536a1.381,1.381,0,0,0,.132-.569V141.222a1.243,1.243,0,0,0-.159-.622L303.2,154.991Z" transform="translate(-266.023 -139.898)" fill="#006cff"/>
              <path id="Path_838" data-name="Path 838" d="M138.457,149.93l3.323,2.926,3.111-2.767.026-.026,16.5-14.7a1.492,1.492,0,0,0-.424-.066H122.569a1.382,1.382,0,0,0-.569.132l16.457,14.5Z" transform="translate(-108.813 -135.3)" fill="#006cff"/>
              <path id="Path_839" data-name="Path 839" d="M110.588,264.8h-9.2a1.115,1.115,0,0,0,.463-.093L85.644,253.159l-3.151,2.807a.474.474,0,0,1-.318.119.5.5,0,0,1-.318-.119L78.495,253l-16.02,11.691a1.2,1.2,0,0,0,.49.093H53.777a.477.477,0,0,0,0,.953h56.811a.47.47,0,1,0,0-.94Z" transform="translate(-49.209 -237.417)" fill="#006cff"/>
              <path id="Path_840" data-name="Path 840" d="M173.435,369.5H139.277a.477.477,0,1,0,0,.953h34.158a.477.477,0,1,0,0-.953Z" transform="translate(-123.389 -338.493)" fill="#006cff"/>
            </g>
          </g>
        </g>
      </g>
      <g id="Rectangle_565" data-name="Rectangle 565" transform="translate(191 201)" fill="none" stroke="#16325c" stroke-width="1">
        <rect width="616" height="367" rx="35" stroke="none"/>
        <rect x="0.5" y="0.5" width="615" height="366" rx="34.5" fill="none"/>
      </g>
    </g>
    <g id="Group_357" data-name="Group 357" transform="translate(86 559.781)">
      <g id="Group_287" data-name="Group 287" transform="translate(0 1)">
        <ellipse id="Ellipse_248" data-name="Ellipse 248" cx="48.5" cy="48" rx="48.5" ry="48" transform="translate(0 0.219)" fill="#ffd246"/>
        <g id="noun_call_2905008-2" data-name="noun_call_2905008" transform="translate(25.499 29.037)">
          <path id="Path_841-2" data-name="Path 841" d="M21.34,16.358a2.309,2.309,0,0,0,0-3.262L13.919,5.675a2.309,2.309,0,0,0-3.262,0L7.42,8.912C2.051,14.281,5.775,26.417,15.9,36.541c6.991,6.992,14.942,10.931,20.961,10.93a9.123,9.123,0,0,0,6.667-2.452l3.236-3.237a2.309,2.309,0,0,0,0-3.262L39.342,31.1a2.309,2.309,0,0,0-3.262,0L33.9,33.276c-1.691,1.688-6.461.536-10.869-3.872s-5.561-9.179-3.872-10.869ZM11.857,6.876a.61.61,0,0,1,.861,0L20.139,14.3a.61.61,0,0,1,0,.861l-1.576,1.576L10.281,8.452ZM37.281,32.3a.61.61,0,0,1,.861,0l7.421,7.421a.61.61,0,0,1,0,.861l-1.576,1.576L35.7,33.876ZM21.835,30.6c4.434,4.434,9.731,6.216,12.6,4.4l8.356,8.356-.46.46c-4.619,4.618-15.935.814-25.228-8.478S4,14.73,8.621,10.113l.46-.46,8.356,8.356C15.619,20.873,17.4,26.171,21.835,30.6Z" transform="translate(-4.968 -5)" fill="#0093dd"/>
          <path id="Path_842-2" data-name="Path 842" d="M31.036,5a.849.849,0,0,0,0,1.7A18.537,18.537,0,0,1,49.552,25.214a.849.849,0,0,0,1.7,0A20.237,20.237,0,0,0,31.036,5Z" transform="translate(-8.779 -5)" fill="#0093dd"/>
          <path id="Path_843-2" data-name="Path 843" d="M31.036,14.91A11.558,11.558,0,0,1,42.581,26.455a.849.849,0,1,0,1.7,0A13.257,13.257,0,0,0,31.036,13.212a.849.849,0,0,0,0,1.7Z" transform="translate(-8.779 -6.241)" fill="#0093dd"/>
          <path id="Path_844-2" data-name="Path 844" d="M31.036,23.123A4.579,4.579,0,0,1,35.61,27.7a.849.849,0,1,0,1.7,0,6.278,6.278,0,0,0-6.271-6.271.849.849,0,0,0,0,1.7Z" transform="translate(-8.779 -7.482)" fill="#0093dd"/>
        </g>
      </g>
      <text id="Call" transform="translate(26 133.219)" fill="#0093dd" font-size="18" font-family="HelveticaNeue-Medium, Helvetica Neue" font-weight="500" letter-spacing="0.011em"><tspan x="0" y="0">CALL</tspan></text>
      <g id="Group_289" data-name="Group 289" transform="translate(151)">
        <circle id="Ellipse_249" data-name="Ellipse 249" cx="48.5" cy="48.5" r="48.5" transform="translate(0 0.219)" fill="#ffd246"/>
        <g id="Outline_Icon-2" data-name="Outline Icon" transform="translate(31.161 22.144)">
          <path id="Path_845-2" data-name="Path 845" d="M46.472,18H28.494A4.5,4.5,0,0,0,24,22.494V33.281a4.5,4.5,0,0,0,4.494,4.494h2.984l2.546,4.072a.9.9,0,0,0,1.528,0l2.542-4.072h8.378a4.5,4.5,0,0,0,4.494-4.494V22.494A4.5,4.5,0,0,0,46.472,18Zm2.7,15.281a2.7,2.7,0,0,1-2.7,2.7H37.6a.9.9,0,0,0-.762.422l-2.047,3.275L32.74,36.4a.9.9,0,0,0-.762-.422H28.494a2.7,2.7,0,0,1-2.7-2.7V22.494a2.7,2.7,0,0,1,2.7-2.7H46.472a2.7,2.7,0,0,1,2.7,2.7Z" transform="translate(-11.416 -3.618)" fill="#0093dd"/>
          <path id="Path_846-2" data-name="Path 846" d="M45.281,25H30.9a.9.9,0,0,0,0,1.8H45.281a.9.9,0,0,0,0-1.8Z" transform="translate(-12.022 -4.326)" fill="#0093dd"/>
          <path id="Path_847-2" data-name="Path 847" d="M45.281,30H30.9a.9.9,0,0,0,0,1.8H45.281a.9.9,0,0,0,0-1.8Z" transform="translate(-12.022 -4.831)" fill="#0093dd"/>
          <path id="Path_848-2" data-name="Path 848" d="M39.663,38.855a.9.9,0,0,0-.9.9v4.494H11.8V11.888H38.765v1.8a.9.9,0,0,0,1.8,0V7.393A5.4,5.4,0,0,0,35.169,2H15.393A5.4,5.4,0,0,0,10,7.393V50.54a5.4,5.4,0,0,0,5.393,5.393H35.169a5.4,5.4,0,0,0,5.393-5.393V39.753A.9.9,0,0,0,39.663,38.855ZM15.393,3.8H35.169a3.6,3.6,0,0,1,3.6,3.6v2.7H11.8v-2.7A3.6,3.6,0,0,1,15.393,3.8ZM35.169,54.136H15.393a3.6,3.6,0,0,1-3.6-3.6V46.046H38.765V50.54A3.6,3.6,0,0,1,35.169,54.136Z" transform="translate(-10 -2)" fill="#0093dd"/>
          <path id="Path_849-2" data-name="Path 849" d="M23.4,8.3h6.292a.9.9,0,1,0,0-1.8H23.4a.9.9,0,0,0,0,1.8Z" transform="translate(-11.264 -2.455)" fill="#0093dd"/>
          <path id="Path_850-2" data-name="Path 850" d="M26.646,52a3.146,3.146,0,1,0,3.146,3.146A3.146,3.146,0,0,0,26.646,52Zm0,4.494a1.348,1.348,0,1,1,1.348-1.348A1.348,1.348,0,0,1,26.646,56.494Z" transform="translate(-11.365 -7.055)" fill="#0093dd"/>
        </g>
      </g>
      <text id="SMS" transform="translate(180 132.219)" fill="#0093dd" font-size="18" font-family="HelveticaNeue-Medium, Helvetica Neue" font-weight="500" letter-spacing="0.011em"><tspan x="0" y="0">SMS</tspan></text>
      <g id="Group_292" data-name="Group 292" transform="translate(302 1)">
        <ellipse id="Ellipse_251" data-name="Ellipse 251" cx="48.5" cy="48" rx="48.5" ry="48" transform="translate(0 0.219)" fill="#ffd246"/>
        <g id="noun_SMS_2582651-2" data-name="noun_SMS_2582651" transform="translate(12.228 32.036)">
          <g id="Group_237-2" data-name="Group 237">
            <path id="Path_836-2" data-name="Path 836" d="M36.958,163.174h-6.83a.558.558,0,1,0,0,1.115h6.83v6.83a1.416,1.416,0,0,0,.139.635l18.708-13.644L37.066,141.6a1.7,1.7,0,0,0-.108.558v10.748h-14a.558.558,0,0,0,0,1.115h14v4.011H26.674a.555.555,0,0,0-.558.558.569.569,0,0,0,.558.573H36.958Z" transform="translate(-22.4 -140.624)" fill="#0093dd"/>
            <path id="Path_837-2" data-name="Path 837" d="M322.141,170.939a1.616,1.616,0,0,0,.155-.666V141.328a1.454,1.454,0,0,0-.186-.728L303.2,157.435Z" transform="translate(-259.712 -139.779)" fill="#0093dd"/>
            <path id="Path_838-2" data-name="Path 838" d="M141.25,152.413l3.887,3.423,3.639-3.237.031-.031,19.3-17.191a1.746,1.746,0,0,0-.5-.077H122.666a1.616,1.616,0,0,0-.666.155l19.25,16.958Z" transform="translate(-106.575 -135.3)" fill="#0093dd"/>
            <path id="Path_839-2" data-name="Path 839" d="M120.313,266.8H109.549a1.3,1.3,0,0,0,.542-.108l-18.956-13.5-3.686,3.283a.555.555,0,0,1-.372.139.585.585,0,0,1-.372-.139L82.772,253,64.033,266.675a1.4,1.4,0,0,0,.573.108H53.858a.558.558,0,0,0,0,1.115h66.455a.55.55,0,1,0,0-1.1Z" transform="translate(-48.514 -234.772)" fill="#0093dd"/>
            <path id="Path_840-2" data-name="Path 840" d="M179.314,369.5H139.358a.558.558,0,1,0,0,1.115h39.957a.558.558,0,1,0,0-1.115Z" transform="translate(-120.773 -333.229)" fill="#0093dd"/>
          </g>
        </g>
      </g>
      <g id="Group_291" data-name="Group 291" transform="translate(453 1)">
        <ellipse id="Ellipse_254" data-name="Ellipse 254" cx="48.5" cy="48" rx="48.5" ry="48" transform="translate(0 0.219)" fill="#ffd246"/>
        <g id="noun_task_1556749-2" transform="translate(28.524 21.029)">
          <path id="Path_862" data-name="Path 862" d="M20.009,957.362A3.016,3.016,0,0,0,17,960.371v48.146a3.016,3.016,0,0,0,3.009,3.009h33.7a3.016,3.016,0,0,0,3.009-3.009V960.371a3.016,3.016,0,0,0-3.009-3.009Zm0,1.2h33.7a1.788,1.788,0,0,1,1.805,1.805v48.146a1.788,1.788,0,0,1-1.805,1.805h-33.7a1.788,1.788,0,0,1-1.805-1.805V960.371A1.788,1.788,0,0,1,20.009,958.566Zm23.415,6a.609.609,0,0,0-.395.226l-8.049,9.215L30.6,970.715a.6.6,0,1,0-.715.959l4.815,3.611a.624.624,0,0,0,.809-.075l8.425-9.629A.636.636,0,0,0,43.424,964.565Zm-18.6,18.073a.6.6,0,1,0,0,1.2H48.9a.6.6,0,1,0,0-1.2Zm0,9.629a.6.6,0,1,0,0,1.2H48.9a.6.6,0,1,0,0-1.2Zm0,9.629a.6.6,0,1,0,0,1.2H48.9a.6.6,0,1,0,0-1.2Z" transform="translate(-17 -957.362)" fill="#0093dd"/>
        </g>
      </g>
      <g id="Group_290" data-name="Group 290" transform="translate(604)">
        <circle id="Ellipse_252" data-name="Ellipse 252" cx="48.5" cy="48.5" r="48.5" transform="translate(0 0.219)" fill="#ffd246"/>
        <g id="noun_customer_journey_508799" data-name="noun_customer journey_508799" transform="translate(14.863 32.119)">
          <path id="Path_863" data-name="Path 863" d="M5.611,56.783a4.385,4.385,0,1,0,6.2,0A4.387,4.387,0,0,0,5.611,56.783Z" transform="translate(-2.027 -35.931)" fill="none"/>
          <path id="Path_864" data-name="Path 864" d="M29.2,33.191a4.384,4.384,0,1,0,6.2,0A4.386,4.386,0,0,0,29.2,33.191Z" transform="translate(-9.309 -28.65)" fill="none"/>
          <path id="Path_865" data-name="Path 865" d="M82.659,31.8a4.384,4.384,0,1,0,6.2,0A4.384,4.384,0,0,0,82.659,31.8Z" transform="translate(-25.805 -28.22)" fill="none"/>
          <path id="Path_866" data-name="Path 866" d="M65.681,29.149a6.682,6.682,0,0,0-10.21,8.543l-9.653,9.653a6.694,6.694,0,0,0-7.873-.092l-8.523-8.526a6.681,6.681,0,1,0-10.851.006l-6.993,6.993a6.68,6.68,0,1,0,1.568,1.582L20.154,40.3a6.7,6.7,0,0,0,7.688,0l8.532,8.532a6.681,6.681,0,1,0,10.987.126l9.674-9.675a6.681,6.681,0,0,0,8.648-10.132Zm-54.9,25.1a4.385,4.385,0,1,1,0-6.2A4.386,4.386,0,0,1,10.783,54.25ZM27.1,37.938a4.384,4.384,0,1,1,0-6.2A4.386,4.386,0,0,1,27.1,37.938ZM41,55.882l-2.673-2.668,1.036-1.036L41,53.811l4.13-4.123,1.037,1.034ZM64.054,36.975a4.384,4.384,0,1,1,0-6.2A4.387,4.387,0,0,1,64.054,36.975Z" transform="translate(-1.001 -27.195)" fill="#0093dd"/>
        </g>
      </g>
      <g id="Group_288" data-name="Group 288" transform="translate(755)">
        <circle id="Ellipse_253" data-name="Ellipse 253" cx="48.5" cy="48.5" r="48.5" transform="translate(0 0.219)" fill="#ffd246"/>
        <g id="noun_configuration_1265799" transform="translate(22.975 27.034)">
          <path id="Path_867" data-name="Path 867" d="M21.437,997.872a1.106,1.106,0,0,1,.209.035l1.288.365a1.114,1.114,0,0,1,.783,1.34l-.313,1.253a11.073,11.073,0,0,1,4,3.22l.975-.592a1.114,1.114,0,0,1,1.549.418l.661,1.218a1.114,1.114,0,0,1-.4,1.479l-1.027.644a11.96,11.96,0,0,1,.661,5.326l1.131.313a1.114,1.114,0,0,1,.783,1.34l-.348,1.358a1.114,1.114,0,0,1-1.375.8l-1.1-.3a11.417,11.417,0,0,1-3.1,4.212l.627,1.131a1.114,1.114,0,0,1-.4,1.479l-1.149.714a1.114,1.114,0,0,1-1.566-.418l-.574-1.062a10.491,10.491,0,0,1-4.943.7l-.313,1.2a1.114,1.114,0,0,1-1.375.783l-1.305-.366a1.114,1.114,0,0,1-.783-1.34l.331-1.253a10.984,10.984,0,0,1-4-3.2l-.975.592a1.114,1.114,0,0,1-1.549-.418l-.679-1.218a1.114,1.114,0,0,1,.4-1.5l1.044-.627a11.96,11.96,0,0,1-.679-5.326l-1.131-.331a1.114,1.114,0,0,1-.766-1.34l.331-1.358a1.114,1.114,0,0,1,1.392-.8l1.079.3a11.442,11.442,0,0,1,3.1-4.212l-.609-1.114a1.114,1.114,0,0,1,.4-1.5l1.149-.7a1.114,1.114,0,0,1,1.566.4l.574,1.062a10.548,10.548,0,0,1,4.943-.679l.313-1.2a1.114,1.114,0,0,1,1.044-.835A1.1,1.1,0,0,1,21.437,997.872Zm-2.489,4.194a8.374,8.374,0,0,0-3.9.94,1.113,1.113,0,0,1-.644.122,1.114,1.114,0,0,1-.4.5,9.246,9.246,0,0,0-3.429,4.716,1.113,1.113,0,0,1-.383.539,1.114,1.114,0,0,1,.087.679,9.744,9.744,0,0,0,.731,5.918,1.114,1.114,0,0,1,.087.661,1.113,1.113,0,0,1,.5.435,8.782,8.782,0,0,0,4.455,3.585,1.113,1.113,0,0,1,.5.383,1.113,1.113,0,0,1,.644-.052,8.256,8.256,0,0,0,5.517-.766,1.113,1.113,0,0,1,.627-.122,1.113,1.113,0,0,1,.4-.5,9.226,9.226,0,0,0,3.429-4.717,1.115,1.115,0,0,1,.4-.54,1.114,1.114,0,0,1-.087-.679,9.689,9.689,0,0,0-.731-5.9,1.114,1.114,0,0,1-.087-.679,1.113,1.113,0,0,1-.522-.418,8.82,8.82,0,0,0-4.438-3.6,1.114,1.114,0,0,1-.522-.383,1.114,1.114,0,0,1-.627.052,8.272,8.272,0,0,0-1.619-.174Z" transform="translate(-6.001 -975.872)" fill="#0093dd" fill-rule="evenodd"/>
          <path id="Path_868" data-name="Path 868" d="M24.133,1010.192a6.1,6.1,0,0,1,1.594.229h0a6.673,6.673,0,0,1,4.492,8.112h0a6.369,6.369,0,0,1-7.814,4.706,6.685,6.685,0,0,1-4.492-8.117h0a6.455,6.455,0,0,1,6.22-4.93Z" transform="translate(-11.184 -981.331)" fill="#0093dd" fill-rule="evenodd"/>
          <path id="Path_869" data-name="Path 869" d="M51.459,966.948a1.9,1.9,0,1,1-1.86,1.9A1.9,1.9,0,0,1,51.459,966.948Z" transform="translate(-25.318 -962.171)" fill="#0093dd" fill-rule="evenodd"/>
          <path id="Path_870" data-name="Path 870" d="M75.269,966.668a1.9,1.9,0,1,1-1.86,1.9A1.9,1.9,0,0,1,75.269,966.668Z" transform="translate(-35.867 -962.047)" fill="#0093dd" fill-rule="evenodd"/>
          <path id="Path_871" data-name="Path 871" d="M63.364,966.668a1.9,1.9,0,1,1-1.855,1.9A1.9,1.9,0,0,1,63.364,966.668Z" transform="translate(-30.594 -962.047)" fill="#0093dd" fill-rule="evenodd"/>
          <path id="Path_872" data-name="Path 872" d="M56.6,958.372a1.114,1.114,0,0,1,1.01,1.114v45.773a1.114,1.114,0,0,1-1.114,1.114H32.6a1.114,1.114,0,0,1,0-2.228H55.385V970.973H14.1v8.58a1.114,1.114,0,1,1-2.228,0V959.486a1.114,1.114,0,0,1,1.114-1.114H56.5q.052,0,.1,0ZM55.385,960.6H14.1v8.145H55.385Z" transform="translate(-8.603 -958.371)" fill="#0093dd" fill-rule="evenodd"/>
        </g>
      </g>
      <text id="Meeting" transform="translate(803.5 133.271)" fill="#0093dd" font-size="18" font-family="HelveticaNeue-Medium, Helvetica Neue" font-weight="500" letter-spacing="0.011em"><tspan x="-41.103" y="0">MEETING</tspan></text>
      <text id="Automated_Engagament" data-name="Automated
Engagament" transform="translate(661 132.219)" fill="#0093dd" font-size="18" font-family="HelveticaNeue-Medium, Helvetica Neue" font-weight="500" letter-spacing="0.011em"><tspan x="-56.151" y="0">AUTOMATED</tspan><tspan x="-64.233" y="23">ENGAGAMENT</tspan></text>
      <text id="Follow_up" data-name="Follow up" transform="translate(448 133.219)" fill="#0093dd" font-size="18" font-family="HelveticaNeue-Medium, Helvetica Neue" font-weight="500" letter-spacing="0.011em"><tspan x="0" y="0">FOLLOW UP</tspan></text>
      <text id="email" transform="translate(323 132.219)" fill="#0093dd" font-size="18" font-family="HelveticaNeue-Medium, Helvetica Neue" font-weight="500" letter-spacing="0.011em"><tspan x="0" y="0">EMAIL</tspan></text>
    </g>
    <g id="Group_302" data-name="Group 302" transform="translate(783 196)">
      <g id="Group_295" data-name="Group 295" transform="translate(0)">
        <circle id="Ellipse_247" data-name="Ellipse 247" cx="77.5" cy="77.5" r="77.5" transform="translate(0 0)" fill="#e0f5ff"/>
      </g>
      <g id="Group_286" data-name="Group 286" transform="translate(29.292 30.009)">
        <g transform="matrix(1, 0, 0, 1, -812.29, -226.01)" filter="url(#Path_820)">
          <path id="Path_820-2" data-name="Path 820" d="M358.416,160.208a48.046,48.046,0,0,1-3.882,18.984l-.16.368a48.288,48.288,0,0,1-52.531,28.133q-.434-.077-.867-.16a47.777,47.777,0,0,1-8.72-2.572q-.687-.276-1.363-.572c-.308-.134-.616-.272-.921-.415a48.213,48.213,0,1,1,68.446-43.767Z" transform="translate(550.29 114.01)" fill="#0093dd"/>
        </g>
        <path id="Path_823" data-name="Path 823" d="M482.292,300.565a19.062,19.062,0,0,0,1.1,9.783,17.372,17.372,0,0,0,3.3-18.593A19.062,19.062,0,0,0,482.292,300.565Z" transform="translate(-450.67 -266.118)" opacity="0.2"/>
        <path id="Path_831" data-name="Path 831" d="M18.794,0A18.794,18.794,0,1,1,0,18.794,18.794,18.794,0,0,1,18.794,0Z" transform="translate(29.315 21.296)" fill="#f8f8f8"/>
        <path id="Path_826" data-name="Path 826" d="M547.833,458.66s2.349,11.159,2.349,12.334,11.159,6.461,11.159,6.461l9.984-1.762,3.524-10.572s-5.873-8.81-5.873-12.334Z" transform="translate(-507.066 -404.182)" fill="#f8f8f8"/>
        <path id="Path_827" data-name="Path 827" d="M461.911,526.668l-.16.368a48.288,48.288,0,0,1-52.531,28.133q-.434-.077-.867-.16a47.786,47.786,0,0,1-8.72-2.572q-.687-.276-1.364-.572c-.308-.134-.616-.273-.921-.415a48.152,48.152,0,0,1-7.88-4.6l-2.228-6.462,1.252-.956,2.576-1.967,2.748-2.1.715-.546,10.784-8.233.8-.608,5.605-4.279h0s6.062,9.877,14.872,6.94a12.149,12.149,0,0,0,8.618-11.357Z" transform="translate(-369.377 -459.476)" fill="#2f2e41"/>
        <path id="Path_828" data-name="Path 828" d="M458.465,224.447s5.967-12.929,17.4-9.945,17.9,7.459,18.4,11.934a63.858,63.858,0,0,1-.249,11.188s-1.243-9.2-9.2-7.21-20.387.5-20.387.5l-1.989,17.9s-2.238-3.232-4.724-1.243S450.509,228.425,458.465,224.447Z" transform="translate(-426.654 -199.499)" fill="#2f2e41"/>
        <path id="Path_829" data-name="Path 829" d="M385.3,691.324q-.687-.276-1.363-.572c-.308-.134-.616-.272-.921-.415a48.332,48.332,0,0,1-12.493-8.372,16.9,16.9,0,0,1,2.385-2.694h8.81l1.321,4.442Z" transform="translate(-355.042 -598.362)" fill="#2f2e41"/>
        <path id="Path_830" data-name="Path 830" d="M853.438,576.32,861,577.655a48.2,48.2,0,0,1-8.1,12.633Z" transform="translate(-768.621 -510.095)" fill="#2f2e41"/>
      </g>
    </g>
    <g id="Group_363" data-name="Group 363" transform="translate(453.204 -58.801)">
      <g id="Group_293" data-name="Group 293" transform="translate(356.796 437)">
        <path id="Path_873" data-name="Path 873" d="M-1026,8604.451v79.934" transform="translate(1033.861 -8604.451)" fill="none" stroke="#6dc742" stroke-width="1" stroke-dasharray="8"/>
        <circle id="Ellipse_256" data-name="Ellipse 256" cx="7.5" cy="7.5" r="7.5" transform="translate(0 67.801)" fill="#6dc742"/>
      </g>
      <g id="Group_361" data-name="Group 361" transform="translate(400.088 437)">
        <path id="Path_873-2" data-name="Path 873" d="M-1026,8604.451v79.934" transform="translate(1033.658 -8604.451)" fill="none" stroke="#6dc742" stroke-width="1" stroke-dasharray="8"/>
        <ellipse id="Ellipse_256-2" data-name="Ellipse 256" cx="7.5" cy="7.5" rx="7.5" ry="7.5" transform="translate(0 67.462)" fill="#6dc742"/>
      </g>
      <g id="Group_362" data-name="Group 362" transform="translate(443.128 437)">
        <path id="Path_873-3" data-name="Path 873" d="M-1026,8604.451v79.934" transform="translate(1033.658 -8604.451)" fill="none" stroke="#6dc742" stroke-width="1" stroke-dasharray="8"/>
        <ellipse id="Ellipse_256-3" data-name="Ellipse 256" cx="7.5" cy="7.5" rx="7.5" ry="7.5" transform="translate(0 67.462)" fill="#6dc742"/>
      </g>
    </g>
    <g id="Group_364" data-name="Group 364" transform="translate(1201 -134.305) rotate(90)">
      <g id="Group_293-2" data-name="Group 293" transform="translate(356.796 437)">
        <path id="Path_873-4" data-name="Path 873" d="M-1026,8604.451v76.311" transform="translate(1033.861 -8604.451)" fill="none" stroke="#6dc742" stroke-width="1" stroke-dasharray="8"/>
        <circle id="Ellipse_256-4" data-name="Ellipse 256" cx="7.5" cy="7.5" r="7.5" transform="translate(0 64.177)" fill="#6dc742"/>
      </g>
      <g id="Group_361-2" data-name="Group 361" transform="translate(400.088 437)">
        <path id="Path_873-5" data-name="Path 873" d="M-1026,8604.451v76.311" transform="translate(1033.658 -8604.451)" fill="none" stroke="#6dc742" stroke-width="1" stroke-dasharray="8"/>
        <ellipse id="Ellipse_256-5" data-name="Ellipse 256" cx="7.5" cy="7.5" rx="7.5" ry="7.5" transform="translate(0 63.838)" fill="#6dc742"/>
      </g>
      <g id="Group_362-2" data-name="Group 362" transform="translate(443.128 437)">
        <path id="Path_873-6" data-name="Path 873" d="M-1026,8604.451v76.311" transform="translate(1033.658 -8604.451)" fill="none" stroke="#6dc742" stroke-width="1" stroke-dasharray="8"/>
        <ellipse id="Ellipse_256-6" data-name="Ellipse 256" cx="7.5" cy="7.5" rx="7.5" ry="7.5" transform="translate(0 63.838)" fill="#6dc742"/>
      </g>
    </g>
    <g id="Rectangle_578" data-name="Rectangle 578" transform="translate(42 530)" fill="none" stroke="#0093dd" stroke-width="1" stroke-dasharray="10">
      <rect width="940" height="204" rx="25" stroke="none"/>
      <rect x="0.5" y="0.5" width="939" height="203" rx="24.5" fill="none"/>
    </g>
    <text id="Nuturing" transform="translate(-12 503)" fill="#0093dd" font-size="14" font-family="HelveticaNeue-Medium, Helvetica Neue" font-weight="500"><tspan x="78.446" y="14">NUTURING</tspan></text>
    <text id="Automate" transform="translate(-12 67)" fill="#0093dd" font-size="14" font-family="HelveticaNeue-Medium, Helvetica Neue" font-weight="500"><tspan x="76.997" y="14">AUTOMATE</tspan></text>
    <text id="Walk_IN_Inquiry" data-name="Walk IN  Inquiry" transform="translate(-12 20)" fill="#16325c" font-size="18" font-family="HelveticaNeue-Medium, Helvetica Neue" font-weight="500"><tspan x="67.714" y="18" xml:space="preserve">WALK IN  INQUIRY</tspan></text>
  </g>
</svg>
