<svg xmlns="http://www.w3.org/2000/svg" xmlns:xlink="http://www.w3.org/1999/xlink" width="1024" height="768" viewBox="0 0 1024 768">
  <defs>
    <linearGradient id="linear-gradient" x1="0.5" y1="1" x2="0.5" gradientUnits="objectBoundingBox">
      <stop offset="0" stop-color="gray" stop-opacity="0.251"/>
      <stop offset="0.54" stop-color="gray" stop-opacity="0.122"/>
      <stop offset="1" stop-color="gray" stop-opacity="0.102"/>
    </linearGradient>
    <clipPath id="clip-BANKING_-FEET_ON_STREET">
      <rect width="1024" height="768"/>
    </clipPath>
  </defs>
  <g id="BANKING_-FEET_ON_STREET" data-name="BANKING -FEET ON STREET" clip-path="url(#clip-BANKING_-FEET_ON_STREET)">
    <rect width="1024" height="768" fill="#fff"/>
    <rect id="Rectangle_424" data-name="Rectangle 424" width="1024" height="40" fill="#16325c"/>
    <g id="Group_383" data-name="Group 383">
      <rect id="Rectangle_601" data-name="Rectangle 601" width="213.2" height="81.356" transform="translate(774.982 80.077)" fill="#0093dd"/>
      <rect id="Rectangle_607" data-name="Rectangle 607" width="213.2" height="78.356" transform="translate(774.982 186.326)" fill="#0093dd"/>
      <rect id="Rectangle_613" data-name="Rectangle 613" width="213.2" height="80.356" transform="translate(774.982 292.575)" fill="#0093dd"/>
      <rect id="Rectangle_619" data-name="Rectangle 619" width="213.2" height="78.356" transform="translate(774.982 398.824)" fill="#0093dd"/>
      <rect id="Rectangle_625" data-name="Rectangle 625" width="213.2" height="79.356" transform="translate(774.982 505.074)" fill="#0093dd"/>
      <rect id="Rectangle_606" data-name="Rectangle 606" width="118.98" height="17.111" transform="translate(788.047 94.876)" fill="#ffd246"/>
      <rect id="Rectangle_612" data-name="Rectangle 612" width="127.741" height="17.111" transform="translate(788.047 201.125)" fill="#ffd246"/>
      <rect id="Rectangle_618" data-name="Rectangle 618" width="123.986" height="17.111" transform="translate(788.047 307.375)" fill="#ffd246"/>
      <rect id="Rectangle_624" data-name="Rectangle 624" width="123.986" height="17.111" transform="translate(788.047 413.624)" fill="#ffd246"/>
      <rect id="Rectangle_630" data-name="Rectangle 630" width="123.986" height="17.111" transform="translate(788.047 519.873)" fill="#ffd246"/>
      <rect id="Rectangle_605" data-name="Rectangle 605" width="175.277" height="4.625" transform="translate(799.84 124.937)" fill="#f8f8f8"/>
      <rect id="Rectangle_611" data-name="Rectangle 611" width="175.277" height="4.625" transform="translate(799.84 231.186)" fill="#f8f8f8"/>
      <rect id="Rectangle_617" data-name="Rectangle 617" width="175.277" height="4.625" transform="translate(799.84 337.436)" fill="#f8f8f8"/>
      <rect id="Rectangle_623" data-name="Rectangle 623" width="175.277" height="4.625" transform="translate(799.84 443.685)" fill="#f8f8f8"/>
      <rect id="Rectangle_629" data-name="Rectangle 629" width="175.277" height="4.625" transform="translate(799.84 549.933)" fill="#f8f8f8"/>
      <rect id="Rectangle_604" data-name="Rectangle 604" width="175.277" height="4.625" transform="translate(799.84 136.961)" fill="#f8f8f8"/>
      <rect id="Rectangle_610" data-name="Rectangle 610" width="175.277" height="4.625" transform="translate(799.84 243.211)" fill="#f8f8f8"/>
      <rect id="Rectangle_616" data-name="Rectangle 616" width="175.277" height="4.625" transform="translate(799.84 349.46)" fill="#f8f8f8"/>
      <rect id="Rectangle_622" data-name="Rectangle 622" width="175.277" height="4.625" transform="translate(799.84 455.708)" fill="#f8f8f8"/>
      <rect id="Rectangle_628" data-name="Rectangle 628" width="175.277" height="4.625" transform="translate(799.84 561.958)" fill="#f8f8f8"/>
      <text id="CREATE_A_TASK" data-name="CREATE A TASK" transform="translate(793 108)" fill="#0093dd" font-size="12" font-family="HelveticaNeue-Medium, Helvetica Neue" font-weight="500" letter-spacing="0.011em"><tspan x="0" y="0">CREATE A TASK</tspan></text>
      <text id="DOCUMENTATION" transform="translate(793 214)" fill="#0093dd" font-size="12" font-family="HelveticaNeue-Medium, Helvetica Neue" font-weight="500" letter-spacing="0.011em"><tspan x="0" y="0">DOCUMENTATION</tspan></text>
      <text id="ASSIGN_TASK" data-name="ASSIGN TASK" transform="translate(793 320)" fill="#0093dd" font-size="12" font-family="HelveticaNeue-Medium, Helvetica Neue" font-weight="500" letter-spacing="0.011em"><tspan x="0" y="0">ASSIGN TASK</tspan></text>
      <text id="VERIFICATION" transform="translate(793 426)" fill="#0093dd" font-size="12" font-family="HelveticaNeue-Medium, Helvetica Neue" font-weight="500" letter-spacing="0.011em"><tspan x="0" y="0">VERIFICATION</tspan></text>
      <text id="TRACK_THEM" data-name="TRACK THEM" transform="translate(793 532)" fill="#0093dd" font-size="12" font-family="HelveticaNeue-Medium, Helvetica Neue" font-weight="500" letter-spacing="0.011em"><tspan x="0" y="0">TRACK THEM</tspan></text>
    </g>
    <g id="Group_382" data-name="Group 382" transform="translate(378 123.249)">
      <path id="Path_907" data-name="Path 907" d="M921.759,745.773c0,10.52-187.912,19.045-419.7,19.045-229.616,0-416.166-8.363-419.647-18.748,44.567-7.764,161.9-14.429,322.105-18.827,31.3-.336,63.966-.515,97.542-.515C733.847,726.728,921.759,735.253,921.759,745.773Z" transform="translate(-524.476 -161.394)" opacity="0.1"/>
      <path id="Path_908" data-name="Path 908" d="M0,0H215.6V322.962H0Z" transform="translate(58.928 261.21)" fill="#16325c"/>
      <rect id="Rectangle_584" data-name="Rectangle 584" width="202.557" height="99.105" transform="translate(71.968 373.356)" fill="#f8f8f8"/>
      <rect id="Rectangle_585" data-name="Rectangle 585" width="200.384" height="94.324" transform="translate(153.687 375.529)" fill="#0093dd"/>
      <rect id="Rectangle_586" data-name="Rectangle 586" width="144.465" height="16.083" transform="translate(165.967 389.439)" fill="#ffd246"/>
      <rect id="Rectangle_587" data-name="Rectangle 587" width="164.741" height="4.347" transform="translate(177.051 417.693)" fill="#f8f8f8"/>
      <rect id="Rectangle_588" data-name="Rectangle 588" width="164.741" height="4.347" transform="translate(177.051 428.994)" fill="#f8f8f8"/>
      <rect id="Rectangle_589" data-name="Rectangle 589" width="164.741" height="4.347" transform="translate(177.051 440.296)" fill="#f8f8f8"/>
      <rect id="Rectangle_590" data-name="Rectangle 590" width="164.741" height="4.347" transform="translate(177.051 451.597)" fill="#f8f8f8"/>
      <rect id="Rectangle_591" data-name="Rectangle 591" width="115.218" height="16.083" transform="translate(73.273 297.723)" fill="#ffd246"/>
      <rect id="Rectangle_592" data-name="Rectangle 592" width="164.741" height="4.347" transform="translate(84.357 325.977)" fill="#0093dd"/>
      <rect id="Rectangle_593" data-name="Rectangle 593" width="164.741" height="4.347" transform="translate(84.357 337.278)" fill="#0093dd"/>
      <rect id="Rectangle_594" data-name="Rectangle 594" width="164.741" height="4.347" transform="translate(84.357 348.579)" fill="#0093dd"/>
      <rect id="Rectangle_595" data-name="Rectangle 595" width="164.741" height="4.347" transform="translate(84.357 359.881)" fill="#0093dd"/>
      <rect id="Rectangle_596" data-name="Rectangle 596" width="113.384" height="16.083" transform="translate(75.011 482.459)" fill="#ffd246"/>
      <rect id="Rectangle_597" data-name="Rectangle 597" width="164.741" height="4.347" transform="translate(86.095 510.713)" fill="#f2f2f2"/>
      <rect id="Rectangle_598" data-name="Rectangle 598" width="164.741" height="4.347" transform="translate(86.095 522.014)" fill="#f2f2f2"/>
      <rect id="Rectangle_599" data-name="Rectangle 599" width="164.741" height="4.347" transform="translate(86.095 533.315)" fill="#f2f2f2"/>
      <rect id="Rectangle_600" data-name="Rectangle 600" width="164.741" height="4.347" transform="translate(86.095 544.617)" fill="#f2f2f2"/>
      <text id="Add_NEW_LEAD" data-name="Add NEW LEAD" transform="translate(79 308.751)" fill="#0093dd" font-size="9" font-family="HelveticaNeue-Medium, Helvetica Neue" font-weight="500" letter-spacing="0.011em"><tspan x="0" y="0">ADD NEW LEAD</tspan></text>
      <text id="COLLECT_INFORMATION" data-name="COLLECT INFORMATION" transform="translate(173 401.751)" fill="#0093dd" font-size="10" font-family="HelveticaNeue-Medium, Helvetica Neue" font-weight="500" letter-spacing="0.011em"><tspan x="0" y="0">COLLECT INFORMATION</tspan></text>
      <text id="FOLLOW_UP" data-name="FOLLOW UP" transform="translate(79 494.751)" fill="#0093dd" font-size="10" font-family="HelveticaNeue-Medium, Helvetica Neue" font-weight="500" letter-spacing="0.011em"><tspan x="0" y="0">FOLLOW UP</tspan></text>
    </g>
    <g id="Group_381" data-name="Group 381" transform="translate(-5495.51 -3903.567)">
      <path id="Path_910" data-name="Path 910" d="M551.646,199.595s-6.748-13.317-5.837-17.275-4.747-12.413-4.747-12.413l.366-14.027s-.782,1.434-4.855,2.689c-.344-.452-.717-.9-1.1-1.32a28.913,28.913,0,0,0-4.891-4.08l-7.171-15.475-6.935-10.621s-10.936-22.231-22.231-27.136l-1.778-3.478a.273.273,0,0,0,.108-.351l-1.807-3.535a.28.28,0,0,0-.351-.129l-1.728-3.385a27.187,27.187,0,0,0-5.02-12.112c-.179-.251-.373-.48-.559-.717l2.811-.1c2.467-.093,5.221-.308,6.877-2.151a6.288,6.288,0,0,0,1.284-2.367,10.032,10.032,0,0,0,.416-2.1c0-.108,0-.215,0-.316v-1.75a5.769,5.769,0,0,0-.122-.717.494.494,0,0,0-.057-.28,8.348,8.348,0,0,0-.222-.832,1.118,1.118,0,0,1-.05-.165c-.1-.287-.208-.574-.33-.853a.794.794,0,0,1-.05-.115c-.129-.28-.273-.552-.423-.818l-.043-.086h0a2.87,2.87,0,0,0-.179-.323c-1.943-3.055-5.357-4.841-8.605-6.454a99.445,99.445,0,0,0-9.323-4.3,50.2,50.2,0,0,0-36.573.516,14.48,14.48,0,0,0-3.256,1.735,16.825,16.825,0,0,0-3.55,4.174l-5.558,8.211a11.6,11.6,0,0,0-1.8,3.313c-1.04,3.9,2.223,7.809,1.857,11.832-.186,2-1.262,3.837-1.47,5.837-.265,2.582.932,5.07,2.1,7.4l7.953,15.777c-.423,2.072-.889,4.2-1.4,6.246h0c-3.664,3.786-4.9,5.852-5.235,6.97l-.108.057h0a6.453,6.453,0,0,0-1.836,1.793l-7.558,7.343s-13.138,3.413-15.87,7.738c0,0-20.617-.9-20.438,27.889,0,0-.911,10.8-1.434,12.241s0,16.013,0,16.013L380.67,227.1s-.789,15.655,0,21.234,1.7,26.813,1.7,26.813,4.927,20.7,3.105,28.075c-1.75,7.064,0,22.51,2.868,22.575.545,1.126,1.169,1.678,1.85,1.363a7.9,7.9,0,0,1,.911-.33v17.634s-3.55,24.7.43,29.4a96.15,96.15,0,0,0-6.526,11.854l-27.9-1.5-3.55,1h0l-3.256.911L348.335,431.5l.789.057-.057,1.384,1.865.136-2.6,45.695,38.617,3.177c-1.7,3.808-3.672,7.888-4.439,8.283-1.434.717-4.561-1.434-5.292-.545a5.939,5.939,0,0,1-5.472,1.434c-2.553-.545-4.2,2.338-4.2,2.338s.373.33.932.939c-4.145-.5-9.387,1.721-12.234,3.155-1.276.645-2.072,1.126-2.072,1.126h-7.53l4.138,26.4,2.919,1.994.717,20.8s11.675,35.992,17.024,35.756a2.417,2.417,0,0,0,1.8-.9c2.868-3.313.882-14.694.882-14.694V549.083s4.374-1.922,3.887-3.363,7.056-17.211,7.73-18.645a.122.122,0,0,0,.057-.115c0-1.621,3.284-3.421,3.1-4.138s8.032-5.221,8.605-9.179,6.017-1.8,6.017-1.8l6.927-7.96c.208,9.7.6,16.494,1.284,18.215,3.284,8.283,4.561,21.241,4.561,21.241s-2.008,9.9,0,13.138c1.233,1.979,4.1,4.1,6.1,5.859-2.072,6.282-1.778,19.635-1.778,19.635v7.673l15.325,4.3s.48-3.837,1.212-3.837,10.463,7.437,10.463,7.437,37.462.48,46.943,0c3.586-.179,4.561-1.721,4.009-3.586-.911-3.105-6.024-7.128-10.57-7.437-7.3-.48-16.544-8.154-16.544-8.154s.717-1.685-3.163-4.08c-2.682-1.649-10.1-8.326-14.694-12.234.215-.294.438-.588.645-.9,0,0-6.2-8.605-4.919-12.421s-.552-9.323-.552-9.323-3.464-10.621-3.464-16.021c0-3.421-.516-22.876-.889-36.673l3.2.265.065-1.377,1.434.129,13.561,1.248-.416-14.493c6.533-2.868,11.969-5.529,14.22-7.229,7.659-5.737,14.228-6.117,14.228-6.117s15.5-8.276,17.878-11.7,2.151-28.255,2.151-28.255l-1.277-53.225v-.043s-1.09-25.73-3.284-31.309c-.8-2.065-2.79-8.95-4.962-16.809a12.987,12.987,0,0,1,3.743.158c.079,1.922.129,3.241.129,3.693,0,3.055,4.374,5.651,4.374,5.651l-3.1-68.843V211.628c9.552,3.041,32.65,3.987,32.65,3.987C555.654,214.74,551.646,199.595,551.646,199.595Zm-90.1-59.148h-.05a47.75,47.75,0,0,1,1.327-5.343ZM398.856,376.573c5.658.932,12.191.66,12.686-.437.05-.108.115-.3.2-.552.179.316.351.638.531.968l-.552,10.384v.237l-18.645-1C394.382,380.61,396.848,377.9,398.856,376.573Zm62.153,52.393-.48-16.816c.832-3.1,1.578-5.909,2.216-8.319.287,2,.531,3.844.717,5.543C465.226,425.329,462.623,428.442,461.009,428.965ZM514.076,176.84c-1.068.409-5.134-2.151-8.993-4.8,0-.488.036-.968.057-1.434.545-10.979-17.333-17.813-22.8-19.075a19.654,19.654,0,0,1-3.844-1.434,89.643,89.643,0,0,1-8.491-4.8l.072-.208s-7.056-4.468-7.207-10.04a95.324,95.324,0,0,1,6.067-14.722c.136-.28.287-.574.43-.853a28.148,28.148,0,0,0,9.179-4.862c1.1,14.342,21.851,26.684,21.851,26.684l2.216,3.586.523.846c-1.119.66-1.656,1.19-1.276,1.5,1.578,1.262,5.393,8.4,6.97,11.424.43.818.717,1.327.717,1.327s3.392,9.229,5.335,16.953a1.435,1.435,0,0,0-.818-.086Z" transform="translate(5238.76 4023.697)" fill="url(#linear-gradient)"/>
      <path id="Path_911" data-name="Path 911" d="M573.9,160.058l-.244.323-.832,1.112-15.956,11.273-3.385-5.565-2.151-3.586s-31.8-19.075-18.129-37.462,33.884,23.306,33.884,23.306Z" transform="translate(5186.954 4003.282)" fill="#ffc5d3"/>
      <rect id="Rectangle_631" data-name="Rectangle 631" width="0.545" height="4.489" rx="0.273" transform="matrix(0.893, -0.45, 0.45, 0.893, 5728.155, 4118.423)" fill="#3a3768"/>
      <rect id="Rectangle_632" data-name="Rectangle 632" width="0.308" height="1.477" rx="0.154" transform="matrix(0.893, -0.45, 0.45, 0.893, 5710.415, 4123.417)" fill="#3a3768"/>
      <rect id="Rectangle_633" data-name="Rectangle 633" width="0.344" height="2.574" rx="0.172" transform="matrix(0.893, -0.45, 0.45, 0.893, 5711.62, 4125.834)" fill="#3a3768"/>
      <rect id="Rectangle_634" data-name="Rectangle 634" width="0.33" height="2.596" rx="0.165" transform="matrix(0.893, -0.45, 0.45, 0.893, 5713.182, 4128.935)" fill="#3a3768"/>
      <rect id="Rectangle_635" data-name="Rectangle 635" width="18.215" height="37.018" rx="2.24" transform="matrix(0.893, -0.45, 0.45, 0.893, 5708.366, 4118.974)" fill="#3a3768"/>
      <path id="Path_912" data-name="Path 912" d="M531.959,105.32a.645.645,0,0,0-.287.875l.057.122a.653.653,0,0,1-.287.882l-6.9,3.471a.645.645,0,0,1-.875-.287l-.065-.122a.652.652,0,0,0-.875-.294l-1.341.681a1.233,1.233,0,0,0-.552,1.671l14.658,29.094a1.255,1.255,0,0,0,1.678.552l12.033-6.06a1.255,1.255,0,0,0,.552-1.678l-14.665-29.108a1.248,1.248,0,0,0-1.678-.552Z" transform="translate(5189.524 4008.102)" fill="#ffd246"/>
      <rect id="Rectangle_636" data-name="Rectangle 636" width="2.546" height="0.516" rx="0.258" transform="matrix(0.893, -0.45, 0.45, 0.893, 5715.433, 4116.654)" fill="#e6e8ec"/>
      <circle id="Ellipse_300" data-name="Ellipse 300" cx="0.294" cy="0.294" r="0.294" transform="translate(5718.12 4115.122)" fill="#e6e8ec"/>
      <path id="Path_913" data-name="Path 913" d="M549.032,261.28,544.55,381.555s15.06-5.02,17.39-1.255-2.51-60.238-2.51-60.238Z" transform="translate(5182.778 3963.733)" fill="#5f5570"/>
      <path id="Path_914" data-name="Path 914" d="M549.032,261.28,544.55,381.555s15.06-5.02,17.39-1.255-2.51-60.238-2.51-60.238Z" transform="translate(5182.778 3963.733)" fill="#16325c" opacity="0.15"/>
      <path id="Path_915" data-name="Path 915" d="M523.13,798.858c-9.323.48-46.132,0-46.132,0s-9.566-7.408-10.283-7.408-1.19,3.822-1.19,3.822l-15.06-4.3v-7.644s-.48-21.765,4.059-22.711,24.626,0,24.626,0c.717-.237,14.342,12.671,18.165,15.059s3.105,4.066,3.105,4.066,9.086,7.645,16.257,8.125c4.468.3,9.495,4.3,10.391,7.408C527.612,797.144,526.644,798.679,523.13,798.858Z" transform="translate(5209.397 3822.6)" fill="#bc8487"/>
      <path id="Path_916" data-name="Path 916" d="M523.136,808.042c-9.323.48-46.132,0-46.132,0s-9.566-7.408-10.283-7.408-1.19,3.822-1.19,3.822l-15.06-4.3V792.66l14.1,5.106,11.237,6.691h51.267C527.618,806.328,526.65,807.863,523.136,808.042Z" transform="translate(5209.391 3813.416)" opacity="0.1"/>
      <path id="Path_917" data-name="Path 917" d="M493.43,795.12s11.474-10.993,19.147-7.888" transform="translate(5197.238 3815.108)" stroke="#000" stroke-miterlimit="10" stroke-width="1" opacity="0.1"/>
      <path id="Path_918" data-name="Path 918" d="M379.966,721.908c.48,1.434-3.822,3.349-3.822,3.349v18.882s1.951,11.338-.868,14.644a2.36,2.36,0,0,1-1.764.9c-5.257.237-16.73-35.619-16.73-35.619l-.717-20.718-2.868-1.986-4.066-26.3h7.415s.782-.48,2.037-1.126c3.586-1.829,11.094-5.02,15.174-1.979l13.862,31.231S379.493,720.474,379.966,721.908Z" transform="translate(5238.058 3847.918)" fill="#bc8487"/>
      <path id="Path_919" data-name="Path 919" d="M375.276,760.06a2.359,2.359,0,0,1-1.764.9c-5.257.237-16.73-35.619-16.73-35.619l-.717-20.718-2.868-1.986-4.066-26.3h7.415s.782-.48,2.037-1.126l1.786,26.942.954,23.185S370.328,750.579,375.276,760.06Z" transform="translate(5238.058 3846.64)" opacity="0.1"/>
      <path id="Path_920" data-name="Path 920" d="M516.383,567.05c-2.331,3.406-17.569,11.653-17.569,11.653s-6.454.359-13.984,6.1c-3.894,2.969-17.426,8.856-29.581,13.855-11.352,4.668-21.514,8.555-21.514,8.555l-11.7,13.625-8.914,10.377S407.74,629.059,407.2,633s-8.605,8.426-8.426,9.143-3.048,2.51-3.048,4.123-12.012-11.653-11.832-19.721-6.1-13.625-6.1-13.625,1.614-2.868,4.123-2.331a5.77,5.77,0,0,0,5.378-1.434c.717-.9,3.765,1.255,5.2.538s7.171-14.88,7.171-14.88l22.353-14.995,44.461-29.8,2.051-1.377s5.916,2.711,3.514-19.5c-.466-4.3-1.248-9.53-2.438-15.9-7.35-39.262,19-43.744,19-43.744l23.127,7.709,5.558,8.605v.043l1.255,53.024S518.714,563.643,516.383,567.05Z" transform="translate(5229.948 3904.832)" fill="#16325c"/>
      <path id="Path_921" data-name="Path 921" d="M472.467,623.914s.072,2.546.179,6.5c-11.352,4.668-21.514,8.555-21.514,8.555l-11.7,13.625c-.194-11.295-.151-25.967,0-41l44.461-29.8C478.39,602.178,472.467,623.914,472.467,623.914Z" transform="translate(5212.551 3873.067)" opacity="0.1"/>
      <path id="Path_922" data-name="Path 922" d="M552.978,485.844v.043l-34.78.674s-6.1,23.844-6.992,28.864c-.222,1.233-1.571,6.5-3.478,13.747-.466-4.3-1.248-9.531-2.438-15.9-7.35-39.262,19-43.744,19-43.744l23.127,7.709Z" transform="translate(5194.25 3904.823)" opacity="0.1"/>
      <path id="Path_923" data-name="Path 923" d="M442.216,396.642,437.734,482.7s-3.227,126.392,0,134.639,4.482,21.155,4.482,21.155-1.972,9.86,0,13.088,8.247,6.813,8.068,8.605,19.183,11.474,29.223-3.944c0,0-6.1-8.605-4.841-12.37s-.538-9.323-.538-9.323-3.406-10.577-3.406-15.977-1.255-50.557-1.255-50.557S489.008,496.3,489.9,491.28s6.992-28.864,6.992-28.864l36.932-.717s-1.076-25.637-3.227-31.195-12.729-46.254-12.729-46.254Z" transform="translate(5213.399 3928.947)" fill="#16325c"/>
      <path id="Path_924" data-name="Path 924" d="M194.045,469.89l-3.206.918-.129,3.17,96.108,1.241V473.97Z" transform="translate(5399.935 3940.061)" fill="#7b728f"/>
      <path id="Path_925" data-name="Path 925" d="M500.6,141.617c-13.984,28.362-5.3,34.293-3.916,35.024-2.962-1.377-41.457-19.463-36.394-24.052,3.292-2.99,6.11-16,7.766-25.321.982-5.565,1.556-9.817,1.556-9.817l40.4,7.408A190.41,190.41,0,0,0,500.6,141.617Z" transform="translate(5206.743 4004.42)" fill="#ffc5d3"/>
      <path id="Path_926" data-name="Path 926" d="M583.031,175.309l-.832,1.112-15.985,11.273-3.385-5.565c4.927-2.868,19.7-7.888,19.7-7.888Z" transform="translate(5177.607 3988.355)" opacity="0.1"/>
      <path id="Path_927" data-name="Path 927" d="M597.432,201.466c-1.434,5.02-25.637,0-25.637,0l-2.51-3.944s-.251-.5-.674-1.319c-1.549-3-5.3-10.119-6.848-11.381-1.972-1.613,21.155-9.5,21.155-9.5L590,190.738a28.558,28.558,0,0,1,4.8,4.066C596.6,196.748,598.085,199.179,597.432,201.466Z" transform="translate(5177.942 3988.05)" fill="#e5e8ef"/>
      <path id="Path_928" data-name="Path 928" d="M555.55,215s14.342,11.316,16.494,10.5,36.932,22.668,36.932,22.668,3.944,15.059-12.37,15.956c0,0-34.6-1.434-36.035-6.454S555.55,215,555.55,215Z" transform="translate(5179.666 3976.825)" fill="#16325c"/>
      <path id="Path_929" data-name="Path 929" d="M494.9,183.272l-15.6,16.135,21.872,139.121,8.605-5.02s22.231,9.86,24.023.717,1.3-45.179,1.3-45.179l-2.911-65.1s-10.219-22.769-10.219-23.486-14.737-11.832-14.737-11.832l-6.956-5.378Z" transform="translate(5201.236 3985.806)" opacity="0.1"/>
      <path id="Path_930" data-name="Path 930" d="M494.9,180.271l-15.6,16.135,21.872,139.121,8.605-5.02s22.231,9.86,24.023.717,1.3-45.179,1.3-45.179l-2.911-65.1s-10.219-22.769-10.219-23.486-14.737-11.832-14.737-11.832l-6.956-5.378Z" transform="translate(5201.236 3986.655)" fill="#e5e8ef"/>
      <path id="Path_931" data-name="Path 931" d="M500.6,182.319l-4.3,8.785,4.3,4.539s15.418,31.137,12.37,49.6l3.227,60.776,10.4,10.219,8.247-9.523L530.9,251.5s-10.578-45.537-21.693-59.7l-3.227-12.55Z" transform="translate(5196.426 3986.938)" opacity="0.1"/>
      <path id="Path_932" data-name="Path 932" d="M500.6,180.319l-4.3,8.785,4.3,4.539s15.418,31.137,12.37,49.6l3.227,60.776,10.4,10.219,8.247-9.523L530.9,249.5s-10.578-45.537-21.693-59.7l-3.227-12.55Z" transform="translate(5196.426 3987.503)" fill="#0093dd"/>
      <path id="Path_933" data-name="Path 933" d="M513.251,124.844c-3.915,6.311-7,11.868-9.409,16.759a27.574,27.574,0,0,1-7.817,1.126c-8.864,0-13.969-6.131-18.989-12.643-1.147-1.477-4.919-1.133-5.737-2.868.982-5.565,1.556-9.817,1.556-9.817Z" transform="translate(5203.499 4004.434)" opacity="0.1"/>
      <path id="Path_934" data-name="Path 934" d="M522.423,102.536a27.487,27.487,0,1,1-5.228-16.128A27.487,27.487,0,0,1,522.423,102.536Z" transform="translate(5204.589 4016.415)" fill="#ffc5d3"/>
      <path id="Path_935" data-name="Path 935" d="M484.525,184.789l-22.589-27.251s-2.087-.839,4.962-8.218c0,0,25.888,20.18,27.494,23.608S484.525,184.789,484.525,184.789Z" transform="translate(5206.229 3995.404)" opacity="0.1"/>
      <path id="Path_936" data-name="Path 936" d="M483.525,182.789l-22.589-27.251s-2.087-.839,4.962-8.218c0,0,25.888,20.18,27.494,23.608S483.525,182.789,483.525,182.789Z" transform="translate(5206.512 3995.97)" fill="#e5e8ef"/>
      <path id="Path_937" data-name="Path 937" d="M554.617,365.559s-4.3-2.582-4.3-5.629-2.151-46.075-2.151-46.075-3.155-25.68-6.454-46.089h0c-1.936-12.026-3.923-22.231-5.328-24.253l-.057-.086c-3.765-4.841-3.048-28.506-26.533-63.107a129.7,129.7,0,0,0,14.342,8.749,19.66,19.66,0,0,0,3.779,1.434c5.378,1.255,22.948,8.068,22.41,19s1.255,36.035,1.255,36.035v51.439Z" transform="translate(5192.611 3986.635)" fill="#16325c"/>
      <path id="Path_938" data-name="Path 938" d="M600.167,209.152c-1.434,5.02-25.637,0-25.637,0l-2.51-3.944s-.251-.5-.674-1.319a.478.478,0,0,1-.036-.086c14.063.982,21.9-.043,26.232-1.312C599.335,204.433,600.819,206.864,600.167,209.152Z" transform="translate(5175.208 3980.364)" opacity="0.1"/>
      <path id="Path_939" data-name="Path 939" d="M572.3,204.659s7.53,20.8,6.454,26,17.39,25.637,17.39,25.637L613.714,244.1s-6.633-13.267-5.737-17.211-4.661-12.37-4.661-12.37l.359-13.97S600.447,206.61,572.3,204.659Z" transform="translate(5174.928 3980.912)" fill="#16325c"/>
      <path id="Path_940" data-name="Path 940" d="M517.3,86.539l-13.625.516a15.174,15.174,0,0,0-3.944.495c-4.869,1.5-7.114,6.676-7.293,11.33s-2.868,9.868-8.082,10.276a2.015,2.015,0,0,1-1.484-.33,2.453,2.453,0,0,1-.631-1.269,27.752,27.752,0,0,0-3.428-7.659c-2.151.387-3.743,2.431-4.3,4.568a25.7,25.7,0,0,0-.4,6.6,42.749,42.749,0,0,1-.81,8.383,27.486,27.486,0,1,1,44.026-32.917Z" transform="translate(5204.482 4016.284)" opacity="0.1"/>
      <path id="Path_941" data-name="Path 941" d="M495.487,80.313a15.174,15.174,0,0,1,3.944-.495l16.544-.617c2.424-.093,5.127-.308,6.755-2.108a6.316,6.316,0,0,0,1.262-2.359,10.183,10.183,0,0,0-1.068-8.34c-1.915-3.048-5.271-4.819-8.469-6.454a98.412,98.412,0,0,0-9.158-4.3,48.764,48.764,0,0,0-35.928.516,14.5,14.5,0,0,0-3.2,1.714,16.531,16.531,0,0,0-3.485,4.159l-5.443,8.2a11.3,11.3,0,0,0-1.714,3.313c-1.025,3.894,2.151,7.788,1.821,11.8-.186,1.994-1.241,3.822-1.434,5.816-.258,2.574.918,5.02,2.072,7.365l9.566,19.3a42.755,42.755,0,0,0,2.316-13.984,24.772,24.772,0,0,1,.4-6.6c.588-2.137,2.151-4.181,4.3-4.568a27.656,27.656,0,0,1,3.435,7.659,2.424,2.424,0,0,0,.631,1.269,2.008,2.008,0,0,0,1.484.33c5.242-.409,7.888-5.572,8.082-10.276S490.618,81.812,495.487,80.313Z" transform="translate(5208.018 4022.804)" fill="#8f7080"/>
      <path id="Path_942" data-name="Path 942" d="M190.89,470.415l6.7-1.915L298.58,474l-11.115,1.434Z" transform="translate(5399.884 3940.454)" fill="#7b728f"/>
      <path id="Path_943" data-name="Path 943" d="M190.89,470.415l6.7-1.915L298.58,474l-11.115,1.434Z" transform="translate(5399.884 3940.454)" opacity="0.1"/>
      <path id="Path_944" data-name="Path 944" d="M337.79,572.981l-13.324-1.241-4.676-.43V497.2l1.233-17.2.273-3.829h13.747Z" transform="translate(5363.42 3938.284)" fill="#7b728f"/>
      <path id="Path_945" data-name="Path 945" d="M334.147,571.291l-10.628-1.176-3.729-.409V499.443l.982-16.307.215-3.636h10.965Z" transform="translate(5363.42 3937.342)" opacity="0.1"/>
      <path id="Path_946" data-name="Path 946" d="M401.42,514.453s6.633-14.55,9.416-15a42.8,42.8,0,0,1,7.888,0l-.452,4.217s-6.813.538-8.964,11.919Z" transform="translate(5223.266 3896.416)" fill="#7b728f"/>
      <path id="Path_947" data-name="Path 947" d="M401.42,514.453s6.633-14.55,9.416-15a42.8,42.8,0,0,1,7.888,0l-.452,4.217s-6.813.538-8.964,11.919Z" transform="translate(5223.266 3896.416)" opacity="0.1"/>
      <path id="Path_948" data-name="Path 948" d="M435.85,497.41s17.835,8.871,15.5,19.269l-9.681-.538s-4.661-15.5-8.333-16.315S435.85,497.41,435.85,497.41Z" transform="translate(5214.566 3896.937)" fill="#7b728f"/>
      <path id="Path_949" data-name="Path 949" d="M492.53,260.552v.524l-.359,59.715s-9.143,50.2-11.653,52.17-57.549-3.406-57.549-3.406l-24.92-167.985c-.179-28.685,20.079-27.788,20.079-27.788,2.689-4.3,15.6-7.709,15.6-7.709l7.171-6.992.229-.323a6.375,6.375,0,0,1,1.807-1.786h0c1.477-.853,2.417.273,2.955,1.384a8.341,8.341,0,0,1,.559,1.628C475.5,181.289,492.53,260.552,492.53,260.552Z" transform="translate(5224.22 3993.325)" fill="#16325c"/>
      <path id="Path_950" data-name="Path 950" d="M505.6,261.671v.523c-9.014-16.494-43.744-78.984-53.246-82.1l3.657-2.51s2.438-1.434-2.044-2.868c0,0-6.992.9-7.171-7.53l7.4-7.315,1.807-1.786h0l2.955,1.384a8.341,8.341,0,0,1,.559,1.628C488.572,182.408,505.6,261.671,505.6,261.671Z" transform="translate(5210.43 3992.923)" opacity="0.1"/>
      <path id="Path_951" data-name="Path 951" d="M506.6,260.671v.524c-9.014-16.494-43.744-78.984-53.246-82.1l3.657-2.51s2.438-1.434-2.044-2.868c0,0-6.992.9-7.171-7.53l7.4-7.315,1.807-1.786h0l2.955,1.384a8.339,8.339,0,0,1,.559,1.628C489.572,181.408,506.6,260.671,506.6,260.671Z" transform="translate(5210.146 3993.207)" fill="#16325c"/>
      <path id="Path_952" data-name="Path 952" d="M537.391,244.473l-.057-.086c-3.765-4.841-3.048-28.505-26.533-63.107a129.69,129.69,0,0,0,14.342,8.749l-1.657,5.464,3.586,1.915Z" transform="translate(5192.325 3986.364)" opacity="0.1"/>
      <path id="Path_953" data-name="Path 953" d="M536.391,243.473l-.057-.086c-3.765-4.841-3.048-28.506-26.533-63.107a129.7,129.7,0,0,0,14.342,8.749l-1.657,5.464,3.586,1.915Z" transform="translate(5192.608 3986.646)" fill="#433a59"/>
      <path id="Path_954" data-name="Path 954" d="M507.78,172.58l-1.47,6.21s1.076,6.217,7.523,6.755l1.04-2.962S507.916,178.123,507.78,172.58Z" transform="translate(5193.595 3988.824)" opacity="0.1"/>
      <path id="Path_955" data-name="Path 955" d="M507.78,171.58l-1.47,6.21s1.076,6.217,7.523,6.755l1.04-2.962S507.916,177.123,507.78,171.58Z" transform="translate(5193.595 3989.107)" fill="#e5e8ef"/>
      <path id="Path_956" data-name="Path 956" d="M328.682,477.57l-4.217,94.566-4.676-.43V497.6l1.233-17.2Z" transform="translate(5363.42 3937.888)" opacity="0.1"/>
      <path id="Path_957" data-name="Path 957" d="M191.1,514.093l-2.868,51.152,97.528,8.132,4.274-95.807Z" transform="translate(5400.636 3937.888)" fill="#7b728f"/>
      <path id="Path_958" data-name="Path 958" d="M189.23,518.349l1.908-45.179,99.895,4.59-4.754,47.76Z" transform="translate(5400.354 3939.133)" opacity="0.1"/>
      <path id="Path_959" data-name="Path 959" d="M188.23,516.349l1.908-45.179,99.895,4.59-4.755,47.76Z" transform="translate(5400.636 3939.699)" fill="#7b728f"/>
      <rect id="Rectangle_637" data-name="Rectangle 637" width="12.012" height="13.984" transform="translate(5630.875 4456.105)" fill="#ffd246"/>
      <path id="Path_960" data-name="Path 960" d="M411.276,455.78l-1.793,4.841s-3.765,26.533.9,29.76,18.466,3.406,19.183,1.793,5.737-19.9,5.737-19.9,4.482,13.446,6.813,12.37-5.378-26.634-5.378-26.634Z" transform="translate(5221.392 3908.713)" fill="#ffc5d3"/>
      <path id="Path_961" data-name="Path 961" d="M410.05,423.971v25.637s19,3.586,27.251-2.61c0,0-7.709-24.82-4.841-31.094S410.05,423.971,410.05,423.971Z" transform="translate(5220.825 3920.442)" opacity="0.1"/>
      <path id="Path_962" data-name="Path 962" d="M410.05,422.971v25.637s19,3.586,27.251-2.61c0,0-7.709-24.82-4.841-31.094S410.05,422.971,410.05,422.971Z" transform="translate(5220.825 3920.725)" fill="#e5e8ef"/>
      <path id="Path_963" data-name="Path 963" d="M404.272,213.291l-5.02,2.689s-.9,10.757-1.434,12.191,0,15.956,0,15.956l-.244,29.4s-.774,15.6,0,21.155,1.642,26.713,1.642,26.713,4.848,20.617,3.055,27.968.179,23.844,3.227,22.41,31.195-6.992,32.629-8.068.717-11.115,0-12.37-5.02-18.287-4.661-22.231-1.255-38.545-1.255-38.545,2.689-36.932,3.765-45.537-2.151-33.884-5.02-34.242S419.69,190.881,404.272,213.291Z" transform="translate(5224.452 3980.348)" opacity="0.1"/>
      <path id="Path_964" data-name="Path 964" d="M402.272,211.291l-5.02,2.689s-.9,10.757-1.434,12.191,0,15.956,0,15.956l-.244,29.4s-.775,15.6,0,21.155,1.642,26.713,1.642,26.713,4.848,20.617,3.055,27.968.179,23.844,3.227,22.41,31.195-6.992,32.629-8.068.717-11.115,0-12.37-5.02-18.287-4.661-22.231-1.255-38.545-1.255-38.545,2.689-36.932,3.765-45.537-2.151-33.884-5.02-34.242S417.69,188.881,402.272,211.291Z" transform="translate(5225.018 3980.913)" fill="#16325c"/>
      <g id="Group_380" data-name="Group 380" transform="translate(5664.357 4089.506)" opacity="0.1">
        <path id="Path_965" data-name="Path 965" d="M473.893,104.77c-2.151.387-3.743,2.431-4.3,4.568a25.7,25.7,0,0,0-.4,6.6,42.748,42.748,0,0,1-2.309,13.984l-9.573-19.3c-.186-.38-.38-.774-.567-1.169a26.074,26.074,0,0,0,1.642,3.858l9.574,19.3a42.745,42.745,0,0,0,2.309-13.984,25.079,25.079,0,0,1,.4-6.6c.581-2.137,2.151-4.181,4.3-4.568a28.777,28.777,0,0,1,1.857,3.392A27.964,27.964,0,0,0,473.893,104.77Z" transform="translate(-456.74 -81.499)"/>
        <path id="Path_966" data-name="Path 966" d="M531.864,72.32a10.155,10.155,0,0,1-.172,5.343,6.331,6.331,0,0,1-1.269,2.359c-1.628,1.8-4.3,2.015-6.755,2.108l-16.537.617a15.224,15.224,0,0,0-3.951.495c-4.862,1.5-7.114,6.676-7.293,11.33s-2.868,9.868-8.082,10.276a2.015,2.015,0,0,1-1.484-.33h0c.165.466.323.939.459,1.434a2.367,2.367,0,0,0,.624,1.269,2.015,2.015,0,0,0,1.484.33c5.249-.409,7.888-5.572,8.082-10.276s2.431-9.832,7.293-11.33a15.225,15.225,0,0,1,3.951-.495l16.537-.617c2.424-.093,5.127-.308,6.755-2.108a6.333,6.333,0,0,0,1.269-2.359,10.183,10.183,0,0,0-.911-8.046Z" transform="translate(-465.108 -72.32)"/>
      </g>
      <path id="Path_967" data-name="Path 967" d="M512.28,481.265s6.21-3.227,8.605-3.048,23.9,27.53,23.9,27.53Z" transform="translate(5191.906 3902.368)" opacity="0.1"/>
      <path id="Path_968" data-name="Path 968" d="M419.089,224.35s-11.352,4.848-11.051,8.2S419.089,224.35,419.089,224.35Z" transform="translate(5221.396 3974.18)" opacity="0.1"/>
      <path id="Path_969" data-name="Path 969" d="M411.93,246.45s-11.911,15.232-9.28,15.741S411.93,246.45,411.93,246.45Z" transform="translate(5223.026 3967.928)" opacity="0.1"/>
      <path id="Path_970" data-name="Path 970" d="M468.284,278.28s1.09,34.063-7.645,38.366Z" transform="translate(5206.514 3958.924)" opacity="0.1"/>
      <path id="Path_971" data-name="Path 971" d="M408,403.553s8.4-4.776,10.334-3.822S408,403.553,408,403.553Z" transform="translate(5221.405 3924.604)" opacity="0.1"/>
      <path id="Path_972" data-name="Path 972" d="M410.05,413.9s5.307.38,7.824-.717S410.05,413.9,410.05,413.9Z" transform="translate(5220.825 3920.863)" opacity="0.1"/>
      <path id="Path_973" data-name="Path 973" d="M586.7,239.41s6.583,18.91,10.377,18.91" transform="translate(5170.854 3969.92)" opacity="0.1"/>
      <path id="Path_974" data-name="Path 974" d="M456.16,743.863s12.349-3.349,14.17,0S456.16,743.863,456.16,743.863Z" transform="translate(5207.781 3827.641)" opacity="0.1"/>
      <path id="Path_975" data-name="Path 975" d="M400.98,675.21s-3.076,4.711.99,6.146S400.98,675.21,400.98,675.21Z" transform="translate(5223.706 3846.64)" opacity="0.1"/>
      <path id="Path_976" data-name="Path 976" d="M515.8,583.53s9.323,8.3,13.726,8.548S515.8,583.53,515.8,583.53Z" transform="translate(5190.911 3872.575)" opacity="0.1"/>
    </g>
    <text id="FEET_ON_STREET" data-name="FEET ON STREET" transform="translate(-26 60)" fill="#16325c" font-size="18" font-family="HelveticaNeue-Medium, Helvetica Neue" font-weight="500"><tspan x="71.962" y="18">FEET ON STREET</tspan></text>
  </g>
</svg>
